<svg fill="none" height="28" viewBox="0 0 100 28" width="100" xmlns="http://www.w3.org/2000/svg"><path d="m91.1113 17.0039v-5l8.8887 2.5z" fill="#8e8ea0"/><path d="m.00195312 14.5078h63.68704688 31.8729" stroke="#8e8ea0" stroke-miterlimit="16"/><path d="m35.0403 11h1.0733v-7.26835h2.45v-.89834h-5.9733v.89834h2.45zm4.0692 0h1.0384v-2.90501c0-1.435.6883-2.135 1.7966-2.135h.21v-.99167h-.1516c-1.0384 0-1.7034.455-1.9134 1.365v-1.33h-.98zm4.8219-6.95335c.3734 0 .6417-.25667.6417-.61834s-.2683-.61833-.6417-.61833c-.385 0-.6416.25666-.6416.61833s.2566.61834.6416.61834zm-.525 6.95335h1.0384v-5.99668h-1.0384zm5.0381 0h.8284v-.8517h-.6067c-.6183 0-.8167-.2333-.8167-.7933v-3.50002h1.47v-.85166h-1.47v-1.70334h-1.05v1.70334h-.98v.85166h.98v3.52335c0 1.02667.49 1.62167 1.645 1.62167zm4.6445.14c1.715 0 2.7066-1.16667 2.7066-2.66001v-.95667c0-1.48167-.9916-2.66-2.7066-2.66-1.7267 0-2.7184 1.17833-2.7184 2.66v.95667c0 1.49334.9917 2.66001 2.7184 2.66001zm0-.8283c-1.12 0-1.7034-.75837-1.7034-1.82004v-.98c0-1.05001.5834-1.80834 1.7034-1.80834 1.1083 0 1.6916.75833 1.6916 1.80834v.98c0 1.06167-.5833 1.82004-1.6916 1.82004zm4.2383.6883h1.0384v-3.53501c0-1.13167.6883-1.69167 1.61-1.69167 1.0033 0 1.4233.64167 1.4233 1.58667v3.64001h1.05v-3.79168c0-1.44667-.8516-2.345-2.1816-2.345-1.0034 0-1.6684.44333-1.9484 1.09667v-.95667h-.9917zm-30.0008 14.1633c1.9367 0 3.15-1.3416 3.2667-2.905h-1.015c-.14 1.0734-.8517 2.0184-2.2634 2.0184-1.5983 0-2.345-1.12-2.345-2.6484v-1.4233c0-1.5284.7467-2.6484 2.345-2.6484 1.4117 0 2.1234.945 2.2634 2.0184h1.015c-.1167-1.5634-1.33-2.905-3.2667-2.905-2.2983 0-3.43 1.54-3.43 3.5817v1.33c0 2.0416 1.1317 3.5816 3.43 3.5816zm7.3168-.0233c1.715 0 2.7066-1.1667 2.7066-2.66v-.9567c0-1.4816-.9916-2.66-2.7066-2.66-1.7267 0-2.7184 1.1784-2.7184 2.66v.9567c0 1.4933.9917 2.66 2.7184 2.66zm0-.8283c-1.12 0-1.7034-.7584-1.7034-1.82v-.98c0-1.05.5834-1.8084 1.7034-1.8084 1.1083 0 1.6916.7584 1.6916 1.8084v.98c0 1.0616-.5833 1.82-1.6916 1.82zm4.2384.6883h1.0383v-3.535c0-1.1317.665-1.6917 1.575-1.6917.9333 0 1.4.6417 1.4 1.5867v3.64h1.0383v-3.535c0-1.1317.665-1.6917 1.575-1.6917.9334 0 1.3884.6417 1.3884 1.5867v3.64h1.05v-3.7917c0-1.4233-.8517-2.345-2.1467-2.345-1.015 0-1.7267.4317-2.135 1.0967-.35-.6767-1.0033-1.0967-1.8667-1.0967-1.0033 0-1.645.4433-1.925 1.0967v-.9567h-.9916zm10.8236 2.03h1.0383v-2.8583c.35.5716 1.0383.9683 1.9367.9683 1.54 0 2.4966-1.1433 2.4966-2.6717v-.9333c0-1.4933-.8983-2.6717-2.5083-2.6717-.9683 0-1.7033.5017-1.9717 1.0267v-.8867h-.9916zm2.765-2.7417c-.9334 0-1.7267-.7-1.7267-1.855v-.7933c0-1.0967.6183-1.925 1.715-1.925 1.1667 0 1.6683.84 1.6683 1.8667v.84c0 1.05-.5833 1.8666-1.6566 1.8666zm4.8254-6.2417c.3734 0 .6417-.2566.6417-.6183s-.2683-.6183-.6417-.6183c-.385 0-.6416.2566-.6416.6183s.2566.6183.6416.6183zm-.525 6.9534h1.0384v-5.9967h-1.0384zm2.9731 0h1.05v-8.5167h-1.05zm5.3073.14c1.2716 0 2.2866-.77 2.485-1.855h-.9334c-.1866.6183-.7 1.0733-1.5516 1.0733-1.1784 0-1.6684-.7933-1.6684-1.75v-.1983h4.2117v-.9333c0-1.4584-.8517-2.6134-2.5783-2.6134-1.715 0-2.6484 1.0967-2.6484 2.7184v.9333c0 1.6333 1.0967 2.625 2.6834 2.625zm-1.6684-3.5117v-.1516c0-1.0384.4317-1.8317 1.6334-1.8317 1.0966 0 1.5983.735 1.5983 1.7383v.245zm5.7481 3.3717h1.0383v-2.905c0-1.435.6883-2.135 1.7967-2.135h.21v-.9917h-.1517c-1.0383 0-1.7033.455-1.9133 1.365v-1.33h-.98z" fill="#191927"/></svg>